<?xml version="1.0" encoding="UTF-8"?>
<svg id="Layer_1" xmlns="http://www.w3.org/2000/svg" version="1.1" viewBox="0 0 595.28 841.89">
  <!-- Generator: Adobe Illustrator 30.2.1, SVG Export Plug-In . SVG Version: 2.1.1 Build 1)  -->
  <defs>
    <style>
      .st0 {
        fill: #231f20;
      }

      .st1 {
        fill: #fff;
      }
    </style>
  </defs>
  <path class="st0" d="M130.55,509.02c-7.37-6.63-8.26-16.94-8.51-22.34-1.46-31.15,6.05-158.53,58.5-164.86,34.62-4.18,68.75,46.81,81.54,79.77,8.9,22.95,19.9,69.22,0,82.96-10.56,7.29-29.79,5.41-38.99-4.25-12.53-13.15-1.12-35.09-13.83-43.61-6.68-4.48-17.32-3.43-20.21,1.06-2.84,4.42,3.13,10.14,5.88,20.21,3.85,14.12.32,33.03-11.2,44.67-14.31,14.47-40.79,17.54-53.18,6.38Z"/>
  <path class="st0" d="M246.28,446.91c-5.96,9.35,3.37,24.29,8.88,30.85,16.31,19.41,51.69,28,76.22,11.7,3.57-2.37,19.8-13.84,21.27-31.91,2.19-26.85-29.72-49.53-31.91-51.05-14.32-9.92-26.86-11.5-29.25-22.34-1.2-5.43.38-12.12,4.79-15.95,5.65-4.9,14.56-3.92,20.21-1.06,7.65,3.88,6.65,9.85,14.89,15.95,5.47,4.05,15.63,8.6,20.55,5.22,7.91-5.43,4.67-32.95-10.97-49.89-12.36-13.38-31.6-19.22-49.46-15.95-22.67,4.14-34.29,21.32-36.33,24.46-1.83,2.82-15.41,23.73-7.61,41.24,2.34,5.26,4.3,5.01,34.19,26.83,7.48,5.46,17.31,12.78,25.18,25.53,6.09,9.86,5.07,13.37,4.25,14.89-2.65,4.92-12.49,6.07-19.68,3.19-9.63-3.85-8.5-12.53-17.55-17.02-8.93-4.43-22.8-2.31-27.66,5.32Z"/>
  <path class="st1" d="M184.8,353.73c-10.54,1.27-15.18,15.39-15.95,23.4-.16,1.64-1.71,17.74,7.98,22.34,7.45,3.53,16.47-2.13,20.75-6.38,6.6-6.57,10.22-18.05,5.31-27.65-3.12-6.1-10.29-12.64-18.08-11.7Z"/>
</svg>