<?xml version="1.0" encoding="UTF-8"?>
<svg id="Layer_1" data-name="Layer 1" xmlns="http://www.w3.org/2000/svg" viewBox="0 0 595.28 841.89">
  <defs>
    <style>
      .cls-1 {
        fill: #231f20;
      }
    </style>
  </defs>
  <path class="cls-1" d="M346.95,384.49c-27.3-70.37-100.17-179.22-174.08-170.3-111.97,13.51-128.01,285.45-124.89,351.95.53,11.53,2.43,33.54,18.17,47.69v-.02c26.45,23.83,82.98,17.27,113.53-13.62,24.59-24.85,32.13-65.22,23.91-95.36-5.87-21.5-18.62-33.71-12.55-43.15,6.17-9.59,28.88-11.83,43.15-2.26,27.13,18.19,2.78,65.03,29.53,93.1,19.64,20.62,60.69,24.64,83.24,9.07,42.48-29.33,19-128.11,0-177.11ZM217.23,367.27c-.97,1.48-2.12,2.58-3.37,3.36-6.67,8.99-18.84,11.77-30.58,8.99-37.45-8.84-37.45-62.84.55-70.73,2.15-.45,4.08-.28,5.78.31,1.09-.39,2.25-.63,3.46-.69,2.52-.11,4.91.87,6.79,2.49,2.41-.02,4.9.8,7.16,2.77,16.06,14.04,22.5,34.73,10.21,53.5Z"/>
  <path class="cls-1" d="M313.22,481.24c-12.72,19.96,7.19,51.86,18.96,65.86,34.82,41.44,110.35,59.78,162.72,24.98,7.62-5.06,42.27-29.55,45.41-68.12,4.68-57.32-63.45-105.74-68.12-108.98-30.57-21.18-57.34-24.55-62.44-47.69-2.56-11.59.81-25.87,10.23-34.05,12.06-10.46,31.08-8.37,43.15-2.26,16.33,8.28,14.2,21.03,31.79,34.05,11.68,8.65,33.37,18.36,43.87,11.14,16.89-11.59,9.97-70.34-23.42-106.51-26.39-28.56-67.46-41.03-105.59-34.05-48.4,8.84-73.2,45.52-77.56,52.22-3.91,6.02-32.9,50.66-16.25,88.04,5,11.23,9.18,10.7,72.99,57.28,15.97,11.66,36.95,27.28,53.76,54.5,13,21.05,10.82,28.54,9.07,31.79-5.66,10.5-26.66,12.96-42.01,6.81-20.56-8.22-18.15-26.75-37.47-36.34-19.06-9.46-48.67-4.93-59.05,11.36l-.02-.02Z"/>
</svg>